<svg id="SvgjsSvg1010" xmlns="http://www.w3.org/2000/svg" version="1.1" xmlns:xlink="http://www.w3.org/1999/xlink" xmlns:svgjs="http://svgjs.com/svgjs" width="418" height="418" viewBox="0 0 418 418"><title>Rectangle 6</title><desc>Created with Avocode.</desc><defs id="SvgjsDefs1011"><clipPath id="SvgjsClipPath1014"><path id="SvgjsPath1013" d="M457 468V368H458V468Z " fill="#ffffff"></path></clipPath><clipPath id="SvgjsClipPath1017"><path id="SvgjsPath1016" d="M457 368V367H557V368Z " fill="#ffffff"></path></clipPath><clipPath id="SvgjsClipPath1020"><path id="SvgjsPath1019" d="M874 468V368H875V468Z " fill="#ffffff"></path></clipPath><clipPath id="SvgjsClipPath1023"><path id="SvgjsPath1022" d="M775 368V367H875V368Z " fill="#ffffff"></path></clipPath><clipPath id="SvgjsClipPath1026"><path id="SvgjsPath1025" d="M457 784V684H458V784Z " fill="#ffffff"></path></clipPath><clipPath id="SvgjsClipPath1029"><path id="SvgjsPath1028" d="M457 785V784H557V785Z " fill="#ffffff"></path></clipPath><clipPath id="SvgjsClipPath1032"><path id="SvgjsPath1031" d="M874 784V684H875V784Z " fill="#ffffff"></path></clipPath><clipPath id="SvgjsClipPath1035"><path id="SvgjsPath1034" d="M775 785V784H875V785Z " fill="#ffffff"></path></clipPath></defs><path id="SvgjsPath1012" d="M457 468V368H458V468Z " fill-opacity="0" fill="#ffffff" stroke-dashoffset="0" stroke-linejoin="miter" stroke-linecap="butt" stroke-opacity="1" stroke="#ffcc00" stroke-miterlimit="50" stroke-width="8" clip-path="url(&quot;#SvgjsClipPath1014&quot;)" transform="matrix(1,0,0,1,-457,-367)"></path><path id="SvgjsPath1015" d="M457 368V367H557V368Z " fill-opacity="0" fill="#ffffff" stroke-dashoffset="0" stroke-linejoin="miter" stroke-linecap="butt" stroke-opacity="1" stroke="#ffcc00" stroke-miterlimit="50" stroke-width="8" clip-path="url(&quot;#SvgjsClipPath1017&quot;)" transform="matrix(1,0,0,1,-457,-367)"></path><path id="SvgjsPath1018" d="M874 468V368H875V468Z " fill-opacity="0" fill="#ffffff" stroke-dashoffset="0" stroke-linejoin="miter" stroke-linecap="butt" stroke-opacity="1" stroke="#ffcc00" stroke-miterlimit="50" stroke-width="8" clip-path="url(&quot;#SvgjsClipPath1020&quot;)" transform="matrix(1,0,0,1,-457,-367)"></path><path id="SvgjsPath1021" d="M775 368V367H875V368Z " fill-opacity="0" fill="#ffffff" stroke-dashoffset="0" stroke-linejoin="miter" stroke-linecap="butt" stroke-opacity="1" stroke="#ffcc00" stroke-miterlimit="50" stroke-width="8" clip-path="url(&quot;#SvgjsClipPath1023&quot;)" transform="matrix(1,0,0,1,-457,-367)"></path><path id="SvgjsPath1024" d="M457 784V684H458V784Z " fill-opacity="0" fill="#ffffff" stroke-dashoffset="0" stroke-linejoin="miter" stroke-linecap="butt" stroke-opacity="1" stroke="#ffcc00" stroke-miterlimit="50" stroke-width="8" clip-path="url(&quot;#SvgjsClipPath1026&quot;)" transform="matrix(1,0,0,1,-457,-367)"></path><path id="SvgjsPath1027" d="M457 785V784H557V785Z " fill-opacity="0" fill="#ffffff" stroke-dashoffset="0" stroke-linejoin="miter" stroke-linecap="butt" stroke-opacity="1" stroke="#ffcc00" stroke-miterlimit="50" stroke-width="8" clip-path="url(&quot;#SvgjsClipPath1029&quot;)" transform="matrix(1,0,0,1,-457,-367)"></path><path id="SvgjsPath1030" d="M874 784V684H875V784Z " fill-opacity="0" fill="#ffffff" stroke-dashoffset="0" stroke-linejoin="miter" stroke-linecap="butt" stroke-opacity="1" stroke="#ffcc00" stroke-miterlimit="50" stroke-width="8" clip-path="url(&quot;#SvgjsClipPath1032&quot;)" transform="matrix(1,0,0,1,-457,-367)"></path><path id="SvgjsPath1033" d="M775 785V784H875V785Z " fill-opacity="0" fill="#ffffff" stroke-dashoffset="0" stroke-linejoin="miter" stroke-linecap="butt" stroke-opacity="1" stroke="#ffcc00" stroke-miterlimit="50" stroke-width="8" clip-path="url(&quot;#SvgjsClipPath1035&quot;)" transform="matrix(1,0,0,1,-457,-367)"></path></svg>